<svg width="276" height="283" viewBox="0 0 276 283" fill="none" xmlns="http://www.w3.org/2000/svg">
<path d="M139.019 16.3458C138.234 15.8835 137.259 15.8848 136.475 16.3493L55.4755 64.3493C54.7158 64.7994 54.25 65.617 54.25 66.5V161C54.25 161.891 54.7244 162.715 55.4953 163.162L136.495 210.162C137.269 210.611 138.224 210.613 138.999 210.166L220.499 163.166C221.273 162.719 221.75 161.894 221.75 161V66.5C221.75 65.6146 221.282 64.7952 220.519 64.3458L139.019 16.3458Z" fill="#58D5D3" stroke="#58D5D3" stroke-width="5" stroke-linejoin="round"/>
<path d="M130.25 55.5L96.75 75.5V93L163.25 56.5L179.75 66.5V84.5L163.25 75.5L147.25 84.5M163.25 95L147.25 105V161M130.25 95V151.5M96.75 114L112.75 105V161L130.25 172.5" stroke="white" stroke-width="6" stroke-linecap="round" stroke-linejoin="round"/>
<path d="M19.1364 237.784V233.727H38.25V237.784H31.125V257H26.2614V237.784H19.1364ZM46.7301 257.341C44.9347 257.341 43.3892 256.977 42.0938 256.25C40.8059 255.515 39.8134 254.477 39.1165 253.136C38.4195 251.788 38.071 250.193 38.071 248.352C38.071 246.557 38.4195 244.981 39.1165 243.625C39.8134 242.269 40.7945 241.212 42.0597 240.455C43.3324 239.697 44.8248 239.318 46.5369 239.318C47.6884 239.318 48.7604 239.504 49.7528 239.875C50.7528 240.239 51.6241 240.788 52.3665 241.523C53.1165 242.258 53.6998 243.182 54.1165 244.295C54.5331 245.402 54.7415 246.697 54.7415 248.182V249.511H40.0028V246.511H50.1847C50.1847 245.814 50.0331 245.197 49.7301 244.659C49.4271 244.121 49.0066 243.701 48.4688 243.398C47.9384 243.087 47.321 242.932 46.6165 242.932C45.8816 242.932 45.2301 243.102 44.6619 243.443C44.1013 243.777 43.6619 244.227 43.3438 244.795C43.0256 245.356 42.8627 245.981 42.8551 246.67V249.523C42.8551 250.386 43.0142 251.133 43.3324 251.761C43.6581 252.39 44.1165 252.875 44.7074 253.216C45.2983 253.557 45.9991 253.727 46.8097 253.727C47.3475 253.727 47.84 253.652 48.2869 253.5C48.7339 253.348 49.1165 253.121 49.4347 252.818C49.7528 252.515 49.9953 252.144 50.1619 251.705L54.6392 252C54.4119 253.076 53.946 254.015 53.2415 254.818C52.5445 255.614 51.643 256.235 50.5369 256.682C49.4384 257.121 48.1695 257.341 46.7301 257.341ZM62.8778 257.33C61.7642 257.33 60.7718 257.136 59.9006 256.75C59.0294 256.356 58.34 255.777 57.8324 255.011C57.3324 254.239 57.0824 253.277 57.0824 252.125C57.0824 251.155 57.2604 250.341 57.6165 249.682C57.9725 249.023 58.4574 248.492 59.071 248.091C59.6847 247.689 60.3816 247.386 61.1619 247.182C61.9498 246.977 62.7756 246.833 63.6392 246.75C64.6544 246.644 65.4725 246.545 66.0938 246.455C66.715 246.356 67.1657 246.212 67.446 246.023C67.7263 245.833 67.8665 245.553 67.8665 245.182V245.114C67.8665 244.394 67.6392 243.837 67.1847 243.443C66.7377 243.049 66.1013 242.852 65.2756 242.852C64.4044 242.852 63.7112 243.045 63.196 243.432C62.6809 243.811 62.34 244.288 62.1733 244.864L57.696 244.5C57.9233 243.439 58.3703 242.523 59.0369 241.75C59.7036 240.97 60.5634 240.371 61.6165 239.955C62.6771 239.53 63.9044 239.318 65.2983 239.318C66.268 239.318 67.196 239.432 68.0824 239.659C68.9763 239.886 69.768 240.239 70.4574 240.716C71.1544 241.193 71.7036 241.807 72.1051 242.557C72.5066 243.299 72.7074 244.189 72.7074 245.227V257H68.1165V254.58H67.9801C67.6998 255.125 67.3248 255.606 66.8551 256.023C66.3854 256.432 65.821 256.754 65.1619 256.989C64.5028 257.216 63.7415 257.33 62.8778 257.33ZM64.2642 253.989C64.9763 253.989 65.6051 253.848 66.1506 253.568C66.696 253.28 67.1241 252.894 67.4347 252.409C67.7453 251.924 67.9006 251.375 67.9006 250.761V248.909C67.7491 249.008 67.5407 249.098 67.2756 249.182C67.018 249.258 66.7263 249.33 66.4006 249.398C66.0748 249.458 65.7491 249.515 65.4233 249.568C65.0975 249.614 64.8021 249.655 64.5369 249.693C63.9688 249.777 63.4725 249.909 63.0483 250.091C62.6241 250.273 62.2945 250.519 62.0597 250.83C61.8248 251.133 61.7074 251.511 61.7074 251.966C61.7074 252.625 61.946 253.129 62.4233 253.477C62.9081 253.818 63.5218 253.989 64.2642 253.989ZM84.3494 257.341C82.5616 257.341 81.0237 256.962 79.7358 256.205C78.4555 255.439 77.4706 254.379 76.7812 253.023C76.0994 251.667 75.7585 250.106 75.7585 248.341C75.7585 246.553 76.1032 244.985 76.7926 243.636C77.4896 242.28 78.4782 241.223 79.7585 240.466C81.0388 239.701 82.5616 239.318 84.3267 239.318C85.8494 239.318 87.1828 239.595 88.3267 240.148C89.4706 240.701 90.3759 241.477 91.0426 242.477C91.7093 243.477 92.0767 244.652 92.1449 246H87.5767C87.4479 245.129 87.107 244.428 86.554 243.898C86.0085 243.36 85.2926 243.091 84.4062 243.091C83.6562 243.091 83.0009 243.295 82.4403 243.705C81.8873 244.106 81.4555 244.693 81.1449 245.466C80.8343 246.239 80.679 247.174 80.679 248.273C80.679 249.386 80.8305 250.333 81.1335 251.114C81.4441 251.894 81.8797 252.489 82.4403 252.898C83.0009 253.307 83.6562 253.511 84.4062 253.511C84.9593 253.511 85.4555 253.398 85.8949 253.17C86.3419 252.943 86.7093 252.614 86.9972 252.182C87.2926 251.742 87.4858 251.216 87.5767 250.602H92.1449C92.0691 251.936 91.7055 253.11 91.054 254.125C90.41 255.133 89.5199 255.92 88.3835 256.489C87.2472 257.057 85.9025 257.341 84.3494 257.341ZM100.085 246.909V257H95.2443V233.727H99.9489V242.625H100.153C100.547 241.595 101.184 240.788 102.062 240.205C102.941 239.614 104.044 239.318 105.369 239.318C106.581 239.318 107.638 239.583 108.54 240.114C109.449 240.636 110.153 241.39 110.653 242.375C111.161 243.352 111.411 244.523 111.403 245.886V257H106.562V246.75C106.57 245.674 106.297 244.837 105.744 244.239C105.199 243.64 104.434 243.341 103.449 243.341C102.79 243.341 102.206 243.481 101.699 243.761C101.199 244.042 100.805 244.451 100.517 244.989C100.237 245.519 100.093 246.159 100.085 246.909ZM123.168 257.341C121.372 257.341 119.827 256.977 118.531 256.25C117.243 255.515 116.251 254.477 115.554 253.136C114.857 251.788 114.509 250.193 114.509 248.352C114.509 246.557 114.857 244.981 115.554 243.625C116.251 242.269 117.232 241.212 118.497 240.455C119.77 239.697 121.262 239.318 122.974 239.318C124.126 239.318 125.198 239.504 126.19 239.875C127.19 240.239 128.062 240.788 128.804 241.523C129.554 242.258 130.137 243.182 130.554 244.295C130.971 245.402 131.179 246.697 131.179 248.182V249.511H116.44V246.511H126.622C126.622 245.814 126.471 245.197 126.168 244.659C125.865 244.121 125.444 243.701 124.906 243.398C124.376 243.087 123.759 242.932 123.054 242.932C122.319 242.932 121.668 243.102 121.099 243.443C120.539 243.777 120.099 244.227 119.781 244.795C119.463 245.356 119.3 245.981 119.293 246.67V249.523C119.293 250.386 119.452 251.133 119.77 251.761C120.096 252.39 120.554 252.875 121.145 253.216C121.736 253.557 122.437 253.727 123.247 253.727C123.785 253.727 124.277 253.652 124.724 253.5C125.171 253.348 125.554 253.121 125.872 252.818C126.19 252.515 126.433 252.144 126.599 251.705L131.077 252C130.849 253.076 130.384 254.015 129.679 254.818C128.982 255.614 128.08 256.235 126.974 256.682C125.876 257.121 124.607 257.341 123.168 257.341ZM134.338 257V239.545H139.031V242.591H139.213C139.531 241.508 140.065 240.689 140.815 240.136C141.565 239.576 142.429 239.295 143.406 239.295C143.649 239.295 143.91 239.311 144.19 239.341C144.471 239.371 144.717 239.413 144.929 239.466V243.761C144.702 243.693 144.387 243.633 143.986 243.58C143.584 243.527 143.217 243.5 142.884 243.5C142.171 243.5 141.535 243.655 140.974 243.966C140.421 244.269 139.982 244.693 139.656 245.239C139.338 245.784 139.179 246.413 139.179 247.125V257H134.338ZM154.929 257V233.727H159.849V243.33H169.838V233.727H174.747V257H169.838V247.386H159.849V257H154.929ZM186.668 257.341C184.872 257.341 183.327 256.977 182.031 256.25C180.743 255.515 179.751 254.477 179.054 253.136C178.357 251.788 178.009 250.193 178.009 248.352C178.009 246.557 178.357 244.981 179.054 243.625C179.751 242.269 180.732 241.212 181.997 240.455C183.27 239.697 184.762 239.318 186.474 239.318C187.626 239.318 188.698 239.504 189.69 239.875C190.69 240.239 191.562 240.788 192.304 241.523C193.054 242.258 193.637 243.182 194.054 244.295C194.471 245.402 194.679 246.697 194.679 248.182V249.511H179.94V246.511H190.122C190.122 245.814 189.971 245.197 189.668 244.659C189.365 244.121 188.944 243.701 188.406 243.398C187.876 243.087 187.259 242.932 186.554 242.932C185.819 242.932 185.168 243.102 184.599 243.443C184.039 243.777 183.599 244.227 183.281 244.795C182.963 245.356 182.8 245.981 182.793 246.67V249.523C182.793 250.386 182.952 251.133 183.27 251.761C183.596 252.39 184.054 252.875 184.645 253.216C185.236 253.557 185.937 253.727 186.747 253.727C187.285 253.727 187.777 253.652 188.224 253.5C188.671 253.348 189.054 253.121 189.372 252.818C189.69 252.515 189.933 252.144 190.099 251.705L194.577 252C194.349 253.076 193.884 254.015 193.179 254.818C192.482 255.614 191.58 256.235 190.474 256.682C189.376 257.121 188.107 257.341 186.668 257.341ZM202.679 233.727V257H197.838V233.727H202.679ZM206.557 263.545V239.545H211.33V242.477H211.545C211.758 242.008 212.064 241.53 212.466 241.045C212.875 240.553 213.405 240.144 214.057 239.818C214.716 239.485 215.534 239.318 216.511 239.318C217.784 239.318 218.958 239.652 220.034 240.318C221.11 240.977 221.97 241.973 222.614 243.307C223.258 244.633 223.58 246.295 223.58 248.295C223.58 250.242 223.265 251.886 222.636 253.227C222.015 254.561 221.167 255.572 220.091 256.261C219.023 256.943 217.826 257.284 216.5 257.284C215.561 257.284 214.761 257.129 214.102 256.818C213.451 256.508 212.917 256.117 212.5 255.648C212.083 255.17 211.765 254.689 211.545 254.205H211.398V263.545H206.557ZM211.295 248.273C211.295 249.311 211.439 250.216 211.727 250.989C212.015 251.761 212.432 252.364 212.977 252.795C213.523 253.22 214.186 253.432 214.966 253.432C215.754 253.432 216.42 253.216 216.966 252.784C217.511 252.345 217.924 251.739 218.205 250.966C218.492 250.186 218.636 249.288 218.636 248.273C218.636 247.265 218.496 246.379 218.216 245.614C217.936 244.848 217.523 244.25 216.977 243.818C216.432 243.386 215.761 243.17 214.966 243.17C214.178 243.17 213.511 243.379 212.966 243.795C212.428 244.212 212.015 244.803 211.727 245.568C211.439 246.333 211.295 247.235 211.295 248.273ZM234.761 257.341C232.966 257.341 231.42 256.977 230.125 256.25C228.837 255.515 227.845 254.477 227.148 253.136C226.451 251.788 226.102 250.193 226.102 248.352C226.102 246.557 226.451 244.981 227.148 243.625C227.845 242.269 228.826 241.212 230.091 240.455C231.364 239.697 232.856 239.318 234.568 239.318C235.72 239.318 236.792 239.504 237.784 239.875C238.784 240.239 239.655 240.788 240.398 241.523C241.148 242.258 241.731 243.182 242.148 244.295C242.564 245.402 242.773 246.697 242.773 248.182V249.511H228.034V246.511H238.216C238.216 245.814 238.064 245.197 237.761 244.659C237.458 244.121 237.038 243.701 236.5 243.398C235.97 243.087 235.352 242.932 234.648 242.932C233.913 242.932 233.261 243.102 232.693 243.443C232.133 243.777 231.693 244.227 231.375 244.795C231.057 245.356 230.894 245.981 230.886 246.67V249.523C230.886 250.386 231.045 251.133 231.364 251.761C231.689 252.39 232.148 252.875 232.739 253.216C233.33 253.557 234.03 253.727 234.841 253.727C235.379 253.727 235.871 253.652 236.318 253.5C236.765 253.348 237.148 253.121 237.466 252.818C237.784 252.515 238.027 252.144 238.193 251.705L242.67 252C242.443 253.076 241.977 254.015 241.273 254.818C240.576 255.614 239.674 256.235 238.568 256.682C237.47 257.121 236.201 257.341 234.761 257.341ZM245.932 257V239.545H250.625V242.591H250.807C251.125 241.508 251.659 240.689 252.409 240.136C253.159 239.576 254.023 239.295 255 239.295C255.242 239.295 255.504 239.311 255.784 239.341C256.064 239.371 256.311 239.413 256.523 239.466V243.761C256.295 243.693 255.981 243.633 255.58 243.58C255.178 243.527 254.811 243.5 254.477 243.5C253.765 243.5 253.129 243.655 252.568 243.966C252.015 244.269 251.576 244.693 251.25 245.239C250.932 245.784 250.773 246.413 250.773 247.125V257H245.932Z" fill="#58D5D3"/>
</svg>
